<svg xmlns="http://www.w3.org/2000/svg" viewBox="0 0 1200 850">
  <defs><linearGradient id="g" x1="0" y1="0" x2="1" y2="1"><stop stop-color="#35636b"/><stop offset=".56" stop-color="#7bb7a7"/><stop offset="1" stop-color="#e6d7bd"/></linearGradient><filter id="b"><feGaussianBlur stdDeviation="30"/></filter></defs>
  <rect width="1200" height="850" fill="url(#g)"/>
  <circle cx="996" cy="127" r="170" fill="#fff" opacity=".18" filter="url(#b)"/>
  <path d="M0 663C300 561 576 731 1200 578V850H0Z" fill="#fff" opacity=".16"/>
  <g transform="translate(60 0)"><g fill="#fff"><circle cx="555" cy="510" r="124" opacity=".92"/><g opacity=".76"><ellipse cx="555" cy="276" rx="48" ry="126"/><ellipse cx="555" cy="744" rx="48" ry="126"/><ellipse cx="321" cy="510" rx="126" ry="48"/><ellipse cx="789" cy="510" rx="126" ry="48"/><ellipse cx="390" cy="345" rx="54" ry="120" transform="rotate(-45 390 345)"/><ellipse cx="720" cy="675" rx="54" ry="120" transform="rotate(-45 720 675)"/><ellipse cx="720" cy="345" rx="54" ry="120" transform="rotate(45 720 345)"/><ellipse cx="390" cy="675" rx="54" ry="120" transform="rotate(45 390 675)"/></g></g></g>
  <text x="60" y="72" fill="#fff" font-family="Arial, sans-serif" font-size="17" letter-spacing="6" opacity=".8">JXU PLACEHOLDER</text>
  <text x="60" y="768" fill="#fff" font-family="serif" font-size="40" font-weight="700">江大四季</text>
  <text x="62" y="804" fill="#fff" font-family="Arial, sans-serif" font-size="14" letter-spacing="3" opacity=".78">PHOTO / SEASONS</text>
</svg>